<svg data-v-423bf9ae="" xmlns="http://www.w3.org/2000/svg" viewBox="0 0 183 107" class="iconLeft"><!----><!----><!----><g data-v-423bf9ae="" id="e7f95914-ac93-4c9f-8769-2c116595a5da" fill="white" transform="matrix(4.559270239181649,0,0,4.559270239181649,99.7031908573505,5.872497524888502)"><path d="M0.56 12.42L0.56 12.42Q0.56 11.93 0.66 11.55Q0.76 11.17 0.98 10.92Q1.20 10.67 1.43 10.50Q1.65 10.33 2.06 10.21Q2.48 10.09 2.78 10.03Q3.08 9.97 3.63 9.86Q4.17 9.76 4.51 9.69L4.51 9.69Q4.51 9.49 4.51 9.20Q4.52 8.90 4.52 8.85L4.52 8.85Q4.52 8.20 4.06 7.92Q3.60 7.64 3.00 7.64L3.00 7.64Q2.30 7.64 2.04 7.97Q1.79 8.30 1.50 9.38L1.50 9.38L0.92 9.32Q0.92 9.28 0.93 9.04Q0.94 8.79 0.97 8.60Q1.01 8.41 1.08 8.12Q1.16 7.83 1.35 7.61Q1.54 7.39 1.82 7.18Q2.10 6.97 2.56 6.86Q3.02 6.75 3.63 6.75L3.63 6.75Q4.24 6.75 4.68 6.89Q5.11 7.03 5.33 7.20Q5.54 7.38 5.66 7.68Q5.78 7.98 5.80 8.16Q5.81 8.34 5.81 8.62L5.81 8.62Q5.81 9.69 5.78 10.90Q5.75 12.11 5.75 12.32L5.75 12.32Q5.75 12.67 6.07 13.17Q6.38 13.66 6.38 13.75L6.38 13.75Q6.38 13.82 6.26 13.86L6.26 13.86Q5.28 14.18 5.18 14.18L5.18 14.18Q5.04 14.18 4.92 13.98Q4.80 13.78 4.70 13.48Q4.61 13.19 4.59 13.17L4.59 13.17Q4.38 13.31 4.07 13.52Q3.77 13.73 3.65 13.81Q3.53 13.89 3.31 14Q3.09 14.11 2.93 14.15Q2.76 14.20 2.51 14.22Q2.25 14.25 1.93 14.25L1.93 14.25Q1.20 14.25 0.88 13.72Q0.56 13.19 0.56 12.42ZM1.82 12.28L1.82 12.28Q1.82 13.31 2.76 13.31L2.76 13.31Q3.58 13.31 4.42 12.61L4.42 12.61Q4.52 12.53 4.52 11.42L4.52 11.42Q4.52 10.65 4.51 10.23L4.51 10.23Q4.26 10.32 3.87 10.44Q3.49 10.57 3.33 10.63Q3.16 10.68 2.90 10.77Q2.63 10.86 2.54 10.92Q2.45 10.98 2.29 11.06Q2.13 11.14 2.09 11.22Q2.04 11.30 1.96 11.40Q1.88 11.51 1.86 11.64Q1.85 11.77 1.83 11.92Q1.82 12.07 1.82 12.28ZM7.14 7.55L7.11 7.08Q7.71 7.03 8.21 6.94Q8.71 6.86 8.94 6.80Q9.17 6.75 9.21 6.75L9.21 6.75Q9.46 6.75 9.46 6.97L9.46 6.97Q9.46 6.99 9.44 7.33Q9.42 7.67 9.42 7.76L9.42 7.76Q9.53 7.70 9.97 7.41Q10.42 7.11 10.85 6.93Q11.28 6.75 11.73 6.75L11.73 6.75Q11.87 6.75 12.07 6.78Q12.28 6.82 12.66 7.01Q13.03 7.20 13.33 7.50Q13.62 7.80 13.85 8.43Q14.08 9.06 14.08 9.88L14.08 9.88Q14.08 11.90 13.25 13.05Q12.42 14.20 11.12 14.20L11.12 14.20Q10.81 14.20 10.55 14.16Q10.29 14.13 10.12 14.06Q9.94 13.99 9.81 13.92Q9.69 13.85 9.60 13.74Q9.52 13.64 9.48 13.57Q9.44 13.51 9.39 13.42Q9.35 13.33 9.34 13.31L9.34 13.31Q9.32 13.75 9.30 14.52Q9.28 15.29 9.28 15.48L9.28 15.48Q9.30 16.06 9.44 16.22Q9.58 16.38 10.12 16.48L10.12 16.48L10.12 16.95L7.27 16.95L7.27 16.51Q7.71 16.45 7.90 16.31Q8.08 16.17 8.08 15.90L8.08 15.90Q8.06 14.59 8.06 8.30L8.06 8.30Q8.06 7.80 7.92 7.67Q7.77 7.55 7.14 7.55L7.14 7.55ZM9.34 10.95L9.34 10.95Q9.34 12.42 9.64 12.97Q9.94 13.52 10.85 13.52L10.85 13.52Q11.62 13.52 12.18 12.73Q12.74 11.94 12.74 10.30L12.74 10.30Q12.74 7.83 11.13 7.83L11.13 7.83Q10.42 7.83 9.41 8.34L9.41 8.34Q9.41 8.75 9.37 9.64Q9.34 10.53 9.34 10.95ZM15.69 4.80L15.69 4.80Q15.69 4.63 15.93 4.21Q16.16 3.79 16.45 3.79L16.45 3.79Q16.66 3.79 16.97 4.05Q17.28 4.31 17.28 4.65Q17.28 4.98 16.99 5.31Q16.70 5.64 16.45 5.64L16.45 5.64Q16.25 5.64 15.97 5.30Q15.69 4.96 15.69 4.80ZM18.12 14.11L14.87 14.11L14.87 13.64Q15.58 13.58 15.76 13.45Q15.95 13.31 15.95 12.89L15.95 12.89L15.95 9.98Q15.95 8.76 15.88 8.29Q15.82 7.81 15.68 7.68Q15.54 7.55 15.15 7.55L15.15 7.55L14.94 7.55L14.91 7.08Q15.51 7.03 16.00 6.94Q16.49 6.86 16.73 6.80Q16.97 6.75 17.01 6.75L17.01 6.75Q17.25 6.75 17.25 6.97L17.25 6.97Q17.25 7.14 17.23 7.89Q17.22 8.64 17.20 10.01Q17.18 11.38 17.18 13.06L17.18 13.06Q17.18 13.34 17.40 13.47Q17.63 13.61 18.12 13.64L18.12 13.64L18.12 14.11Z"></path></g><!----><g data-v-423bf9ae="" id="f06c10f9-9be1-4b8c-8596-baa337ee1343" transform="matrix(1.0868111504448785,0,0,1.0868111504448785,-13.255261890115804,-0.23894260335429607)" stroke="none" fill="white"><g clip-rule="evenodd"><path d="M12.983 10.59l17.018 88.223-5.872-59.049 29.021-1.892-.054-9.883L64.549 1 53.622 18.977z"></path><path d="M59.389 54.548l5.16-53.541-8.74 39.716-19.612 1.045 1.57 20.462-7.766 36.583 12.057-39.899z"></path><path d="M62.8 67.182l.549-10.453-15.979 3.755-.032 11.797-17.337 26.532 21.68-27.616zM65.711 62.394l14.841-4.731 1.509-12.532-15.899 2.095zM72.07 44.502l10.988-1.417 1.581-10.278-8.079-.373L64.549 1l8.43 30.967z"></path><path d="M87.413 31.294l1.256-9.506-9.544-2.694L64.549 1l14.483 22.437-.422 7z"></path></g></g><!----></svg>